# Blender 4.4.3
# www.blender.org
mtllib guizmos.mtl
o guizmos
v 0.150169 -2.246655 0.190815
v 0.150169 0.117406 0.190815
v 0.150169 -2.246655 -0.069351
v 0.150169 0.117406 -0.069351
v -0.115366 -2.246655 0.190815
v -0.115366 0.117406 0.190815
v -0.115366 -2.246655 -0.069351
v -0.115366 0.117406 -0.069351
v 0.130083 -0.132767 2.334093
v 0.130083 -0.132767 -0.029968
v -0.130083 -0.132767 2.334093
v -0.130083 -0.132767 -0.029968
v 0.130083 0.132767 2.334093
v 0.130083 0.132767 -0.029968
v -0.130083 0.132767 2.334093
v -0.130083 0.132767 -0.029968
v -0.132678 -0.163403 0.190514
v 2.231383 -0.163403 0.190514
v -0.132678 -0.163403 -0.069652
v 2.231383 -0.163403 -0.069652
v -0.132678 0.102132 0.190514
v 2.231383 0.102132 0.190514
v -0.132678 0.102132 -0.069652
v 2.231383 0.102132 -0.069652
vn -0.0000 -1.0000 -0.0000
vn -0.0000 -0.0000 -1.0000
vn -1.0000 -0.0000 -0.0000
vn -0.0000 1.0000 -0.0000
vn 1.0000 -0.0000 -0.0000
vn -0.0000 -0.0000 1.0000
vt 0.625000 0.500000
vt 0.875000 0.500000
vt 0.875000 0.750000
vt 0.625000 0.750000
vt 0.375000 0.750000
vt 0.625000 1.000000
vt 0.375000 1.000000
vt 0.375000 0.000000
vt 0.625000 0.000000
vt 0.625000 0.250000
vt 0.375000 0.250000
vt 0.125000 0.500000
vt 0.375000 0.500000
vt 0.125000 0.750000
s 0
usemtl Blue
f 9/1/6 13/2/6 15/3/6 11/4/6
f 12/5/3 11/4/3 15/6/3 16/7/3
f 16/8/4 15/9/4 13/10/4 14/11/4
f 10/13/1 9/1/1 11/4/1 12/5/1
f 14/11/5 13/10/5 9/1/5 10/13/5
usemtl Material
f 6/12/4 2/13/4 4/5/4 8/14/4
f 14/12/2 10/13/2 12/5/2 16/14/2
f 17/1/3 21/2/3 23/3/3 19/4/3
usemtl red
f 1/1/1 5/2/1 7/3/1 3/4/1
f 4/5/2 3/4/2 7/6/2 8/7/2
f 8/8/3 7/9/3 5/10/3 6/11/3
f 2/13/5 1/1/5 3/4/5 4/5/5
f 6/11/6 5/10/6 1/1/6 2/13/6
usemtl green
f 20/5/2 19/4/2 23/6/2 24/7/2
f 24/8/4 23/9/4 21/10/4 22/11/4
f 22/12/5 18/13/5 20/5/5 24/14/5
f 18/13/1 17/1/1 19/4/1 20/5/1
f 22/11/6 21/10/6 17/1/6 18/13/6
